<svg width="512" height="512" viewBox="0 0 512 512" fill="none" xmlns="http://www.w3.org/2000/svg">
<path d="M497 242H391V15C391 6.716 384.284 0 376 0H136C127.716 0 121 6.716 121 15V242H15C6.716 242 0 248.716 0 257V497C0 505.284 6.716 512 15 512H497C505.284 512 512 505.284 512 497V257C512 248.716 505.284 242 497 242ZM361.925 272H391.925V331H361.925V272ZM119.925 272H149.925V331H119.925V272ZM241 30H271V90H241V30ZM151 30H211V105C211 113.284 217.716 120 226 120H286C294.284 120 301 113.284 301 105V30H361V240.438H151V30ZM30 272H89.925V346C89.925 354.284 96.641 361 104.925 361H164.925C173.209 361 179.925 354.284 179.925 346V272H241V482H30V272ZM482 482H271V272H331.925V346C331.925 354.284 338.641 361 346.925 361H406.925C415.209 361 421.925 354.284 421.925 346V272H482V482Z" fill="white"/>
</svg>
