<svg width="512" height="512" viewBox="0 0 512 512" fill="none" xmlns="http://www.w3.org/2000/svg">
<path d="M454 0H58C46.954 0 38 8.954 38 20V416C38 427.046 46.954 436 58 436H171.716L241.858 506.142C249.668 513.952 262.331 513.953 270.142 506.142L340.284 436H454C465.046 436 474 427.046 474 416V20C474 8.954 465.046 0 454 0ZM434 396H332C326.696 396 321.608 398.107 317.858 401.858L256 463.716L194.142 401.858C190.392 398.107 185.304 396 180 396H78V40H434V396ZM275.704 199.307V295.545C275.704 301.608 266.863 307.67 256.001 307.67C244.634 307.67 236.551 301.608 236.551 295.545V199.307C236.551 192.234 244.634 187.435 256.001 187.435C266.863 187.435 275.704 192.234 275.704 199.307V199.307ZM235.289 146.009C235.289 136.41 244.382 128.075 256.001 128.075C267.368 128.075 276.461 136.41 276.461 146.009C276.461 155.608 267.368 164.196 256.001 164.196C244.382 164.196 235.289 155.608 235.289 146.009V146.009Z" fill="#CC0000"/>
</svg>
