<?xml version="1.0"?>
<svg xmlns="http://www.w3.org/2000/svg" xmlns:xlink="http://www.w3.org/1999/xlink" xmlns:svgjs="http://svgjs.com/svgjs" version="1.1" width="512" height="512" x="0" y="0" viewBox="0 0 512 512" style="enable-background:new 0 0 512 512" xml:space="preserve" class=""><g><g xmlns="http://www.w3.org/2000/svg"><g fill="#57a4ff"><path d="m112 320 64-32 64 32v-160h-128z" fill="#4ad395" data-original="#57a4ff" style="" class=""/><path d="m40 384h112v56h-112z" fill="#4ad395" data-original="#57a4ff" style="" class=""/><path d="m384 48a112 112 0 1 0 112 112 111.995 111.995 0 0 0 -112-112z" fill="#4ad395" data-original="#57a4ff" style="" class=""/></g><g fill="#004fac"><path d="m152 376h-112a8 8 0 0 0 -8 8v56a8 8 0 0 0 8 8h112a8 8 0 0 0 8-8v-56a8 8 0 0 0 -8-8zm-8 56h-96v-40h96z" fill="#3d3d3d" data-original="#004fac" style="" class=""/><path d="m384 40a120.144 120.144 0 0 0 -119.73 112.08 7.452 7.452 0 0 0 -1.06-.08h-227.21a28.031 28.031 0 0 0 -28 28v264a28.031 28.031 0 0 0 28 28h280a28.031 28.031 0 0 0 28-28v-170.86a120 120 0 1 0 40-233.14zm-264 128h112v139.06l-52.42-26.22a8.049 8.049 0 0 0 -7.16 0l-52.42 26.22zm208 276a12.01 12.01 0 0 1 -12 12h-280a12.01 12.01 0 0 1 -12-12v-264a12.01 12.01 0 0 1 12-12h68v152a8 8 0 0 0 11.58 7.16l60.42-30.22 60.42 30.22a8 8 0 0 0 11.58-7.16v-152h15.21a7.452 7.452 0 0 0 1.06-.08 120.153 120.153 0 0 0 63.73 98.18zm56-180a104 104 0 1 1 104-104 104.112 104.112 0 0 1 -104 104z" fill="#3d3d3d" data-original="#004fac" style="" class=""/><path d="m434.343 122.343-75.094 75.094-26.449-19.837a8 8 0 0 0 -9.6 12.8l32 24a8 8 0 0 0 10.457-.743l80-80a8 8 0 1 0 -11.314-11.314z" fill="#3d3d3d" data-original="#004fac" style="" class=""/></g></g></g></svg>
