<svg width="512" height="512" viewBox="0 0 512 512" fill="none" xmlns="http://www.w3.org/2000/svg">
<path d="M268 288C264.817 288 261.765 286.736 259.515 284.485C257.264 282.235 256 279.183 256 276V176H36C33.3733 175.999 30.7723 176.516 28.3454 177.521C25.9185 178.526 23.7134 179.999 21.8561 181.856C19.9988 183.713 18.5256 185.919 17.5208 188.345C16.516 190.772 15.9992 193.373 16 196V224H160V416H320C320 426.609 324.214 436.783 331.716 444.284C339.217 451.786 349.391 456 360 456C370.609 456 380.783 451.786 388.284 444.284C395.786 436.783 400 426.609 400 416H428C430.627 416.001 433.228 415.484 435.655 414.479C438.081 413.474 440.287 412.001 442.144 410.144C444.001 408.287 445.474 406.081 446.479 403.655C447.484 401.228 448.001 398.627 448 396V288H268ZM360 432C356.835 432 353.742 431.062 351.111 429.304C348.48 427.545 346.429 425.047 345.218 422.123C344.007 419.199 343.69 415.982 344.307 412.879C344.925 409.775 346.449 406.924 348.686 404.686C350.924 402.449 353.775 400.925 356.879 400.307C359.982 399.69 363.199 400.007 366.123 401.218C369.047 402.429 371.545 404.48 373.304 407.111C375.062 409.742 376 412.835 376 416C376 420.243 374.314 424.313 371.314 427.314C368.313 430.314 364.243 432 360 432Z" fill="#FFE248"/>
<path d="M16 360H48V384H16V360Z" fill="#FFE248"/>
<path d="M96 376C88.0888 376 80.3552 378.346 73.7772 382.741C67.1992 387.136 62.0723 393.384 59.0448 400.693C56.0173 408.002 55.2252 416.044 56.7686 423.804C58.312 431.563 62.1216 438.69 67.7157 444.284C73.3098 449.878 80.4372 453.688 88.1964 455.231C95.9556 456.775 103.998 455.983 111.307 452.955C118.616 449.928 124.864 444.801 129.259 438.223C133.654 431.645 136 423.911 136 416C136 405.391 131.786 395.217 124.284 387.716C116.783 380.214 106.609 376 96 376V376ZM96 432C92.8355 432 89.7421 431.062 87.1109 429.304C84.4797 427.545 82.4289 425.047 81.2179 422.123C80.0069 419.199 79.6901 415.982 80.3075 412.879C80.9248 409.775 82.4487 406.924 84.6863 404.686C86.924 402.449 89.7749 400.925 92.8786 400.307C95.9823 399.69 99.1993 400.007 102.123 401.218C105.047 402.429 107.545 404.48 109.304 407.111C111.062 409.742 112 412.835 112 416C112 420.243 110.314 424.313 107.314 427.314C104.313 430.314 100.243 432 96 432Z" fill="#FFE248"/>
<path d="M48 256H128V296H48V256Z" fill="#FFE248"/>
<path d="M376 160L404 176L432 192V176V64H320V176V192L348 176L376 160Z" fill="#FFE248"/>
<path d="M96 392C91.2533 392 86.6131 393.408 82.6663 396.045C78.7195 398.682 75.6434 402.43 73.8269 406.816C72.0104 411.201 71.5351 416.027 72.4612 420.682C73.3872 425.338 75.673 429.614 79.0294 432.971C82.3859 436.327 86.6623 438.613 91.3178 439.539C95.9734 440.465 100.799 439.99 105.184 438.173C109.57 436.357 113.318 433.28 115.955 429.334C118.592 425.387 120 420.747 120 416C119.993 409.637 117.462 403.537 112.962 399.038C108.463 394.538 102.363 392.007 96 392V392ZM96 424C94.4178 424 92.871 423.531 91.5554 422.652C90.2399 421.773 89.2145 420.523 88.609 419.061C88.0035 417.6 87.845 415.991 88.1537 414.439C88.4624 412.887 89.2243 411.462 90.3432 410.343C91.462 409.224 92.8874 408.462 94.4393 408.154C95.9911 407.845 97.5997 408.003 99.0615 408.609C100.523 409.214 101.773 410.24 102.652 411.555C103.531 412.871 104 414.418 104 416C103.998 418.121 103.154 420.154 101.654 421.654C100.154 423.154 98.121 423.998 96 424V424Z" fill="#3D3D3D"/>
<path d="M360 392C355.253 392 350.613 393.408 346.666 396.045C342.72 398.682 339.643 402.43 337.827 406.816C336.01 411.201 335.535 416.027 336.461 420.682C337.387 425.338 339.673 429.614 343.029 432.971C346.386 436.327 350.662 438.613 355.318 439.539C359.973 440.465 364.799 439.99 369.184 438.173C373.57 436.357 377.318 433.28 379.955 429.334C382.592 425.387 384 420.747 384 416C383.993 409.637 381.462 403.537 376.962 399.038C372.463 394.538 366.363 392.007 360 392V392ZM360 424C358.418 424 356.871 423.531 355.555 422.652C354.24 421.773 353.214 420.523 352.609 419.061C352.003 417.6 351.845 415.991 352.154 414.439C352.462 412.887 353.224 411.462 354.343 410.343C355.462 409.224 356.887 408.462 358.439 408.154C359.991 407.845 361.6 408.003 363.061 408.609C364.523 409.214 365.773 410.24 366.652 411.555C367.531 412.871 368 414.418 368 416C367.998 418.121 367.154 420.154 365.654 421.654C364.154 423.154 362.121 423.998 360 424V424Z" fill="#3D3D3D"/>
<path d="M484 56H268C262.697 56.0053 257.613 58.1141 253.864 61.8637C250.114 65.6133 248.005 70.6973 248 76V168H35.9999C28.5764 168.008 21.4592 170.961 16.21 176.21C10.9607 181.459 8.00812 188.576 7.99992 196V224C7.99992 226.122 8.84277 228.157 10.3431 229.657C11.8434 231.157 13.8782 232 15.9999 232H42.7099C40.9201 235.747 39.9941 239.848 39.9999 244V315.06L23.4799 323.32C18.8174 325.63 14.8955 329.201 12.1594 333.626C9.42319 338.052 7.98222 343.157 7.99992 348.36V416C7.99992 418.122 8.84277 420.157 10.3431 421.657C11.8434 423.157 13.8782 424 15.9999 424H48.6799C50.5686 435.184 56.3575 445.337 65.0197 452.659C73.682 459.982 84.6576 463.999 95.9999 463.999C107.342 463.999 118.318 459.982 126.98 452.659C135.642 445.337 141.431 435.184 143.32 424H312.68C314.569 435.184 320.357 445.337 329.02 452.659C337.682 459.982 348.658 463.999 360 463.999C371.342 463.999 382.318 459.982 390.98 452.659C399.642 445.337 405.431 435.184 407.32 424H428C435.423 423.992 442.541 421.039 447.79 415.79C453.039 410.541 455.992 403.424 456 396V296H484C489.303 295.995 494.387 293.886 498.136 290.136C501.886 286.387 503.995 281.303 504 276V76C503.995 70.6973 501.886 65.6133 498.136 61.8637C494.387 58.1141 489.303 56.0053 484 56V56ZM328 72H424V178.21L379.97 153.05C378.76 152.362 377.392 152 376 152C374.608 152 373.24 152.362 372.03 153.05L328 178.21V72ZM23.9999 368H39.9999V376H23.9999V368ZM95.9999 448C89.6709 448 83.484 446.123 78.2217 442.607C72.9593 439.091 68.8578 434.093 66.4358 428.246C64.0138 422.399 63.3801 415.965 64.6148 409.757C65.8495 403.55 68.8972 397.848 73.3725 393.373C77.8478 388.897 83.5496 385.85 89.757 384.615C95.9644 383.38 102.399 384.014 108.246 386.436C114.093 388.858 119.091 392.959 122.607 398.222C126.123 403.484 128 409.671 128 416C127.989 424.484 124.614 432.616 118.615 438.615C112.616 444.614 104.483 447.989 95.9999 448ZM152 408H143.32C141.431 396.816 135.642 386.663 126.98 379.341C118.318 372.018 107.342 368.001 95.9999 368.001C84.6576 368.001 73.682 372.018 65.0197 379.341C56.3575 386.663 50.5686 396.816 48.6799 408H23.9999V392H47.9999C50.1216 392 52.1565 391.157 53.6568 389.657C55.1571 388.157 55.9999 386.122 55.9999 384V360C55.9999 357.878 55.1571 355.843 53.6568 354.343C52.1565 352.843 50.1216 352 47.9999 352H23.9999V348.36C23.9919 346.131 24.6088 343.944 25.7806 342.047C26.9525 340.15 28.6325 338.62 30.6299 337.63L51.5799 327.16C52.9082 326.494 54.0251 325.471 54.8057 324.207C55.5862 322.943 55.9997 321.486 55.9999 320V304H128C130.122 304 132.156 303.157 133.657 301.657C135.157 300.157 136 298.122 136 296V256C136 253.878 135.157 251.843 133.657 250.343C132.156 248.843 130.122 248 128 248H55.9999V244C56.0026 240.818 57.2677 237.768 59.5176 235.518C61.7674 233.268 64.8181 232.003 67.9999 232H152V408ZM55.9999 288V264H120V288H55.9999ZM360 448C353.671 448 347.484 446.123 342.222 442.607C336.959 439.091 332.858 434.093 330.436 428.246C328.014 422.399 327.38 415.965 328.615 409.757C329.85 403.55 332.897 397.848 337.372 393.373C341.848 388.897 347.55 385.85 353.757 384.615C359.964 383.38 366.399 384.014 372.246 386.436C378.093 388.858 383.091 392.959 386.607 398.222C390.123 403.484 392 409.671 392 416C391.989 424.484 388.614 432.616 382.615 438.615C376.616 444.614 368.483 447.989 360 448ZM440 396C439.997 399.182 438.732 402.232 436.482 404.482C434.232 406.732 431.182 407.997 428 408H407.32C405.431 396.816 399.642 386.663 390.98 379.341C382.318 372.018 371.342 368.001 360 368.001C348.658 368.001 337.682 372.018 329.02 379.341C320.357 386.663 314.569 396.816 312.68 408H168V224C168 221.878 167.157 219.843 165.657 218.343C164.156 216.843 162.122 216 160 216H23.9999V196C24.0026 192.818 25.2677 189.768 27.5176 187.518C29.7674 185.268 32.8181 184.003 35.9999 184H248V276C248.005 281.303 250.114 286.387 253.864 290.136C257.613 293.886 262.697 295.995 268 296H440V396ZM488 276C488 277.061 487.578 278.078 486.828 278.828C486.078 279.579 485.061 280 484 280H268C266.939 280 265.922 279.579 265.171 278.828C264.421 278.078 264 277.061 264 276V76C264 74.9391 264.421 73.9217 265.171 73.1716C265.922 72.4214 266.939 72 268 72H312V192C311.999 193.402 312.367 194.779 313.066 195.994C313.765 197.209 314.771 198.219 315.983 198.923C317.195 199.627 318.571 200 319.973 200.005C321.375 200.009 322.753 199.646 323.97 198.95L376 169.21L428.03 198.95C429.247 199.646 430.625 200.009 432.027 200.005C433.429 200 434.805 199.627 436.017 198.923C437.229 198.219 438.235 197.209 438.934 195.994C439.633 194.779 440.001 193.402 440 192V72H484C485.061 72 486.078 72.4214 486.828 73.1716C487.578 73.9217 488 74.9391 488 76V276Z" fill="#3D3D3D"/>
</svg>
