<?xml version="1.0"?>
<svg xmlns="http://www.w3.org/2000/svg" xmlns:xlink="http://www.w3.org/1999/xlink" xmlns:svgjs="http://svgjs.com/svgjs" version="1.1" width="512" height="512" x="0" y="0" viewBox="0 0 512 512" style="enable-background:new 0 0 512 512" xml:space="preserve" class=""><g><g xmlns="http://www.w3.org/2000/svg"><g fill="#57a4ff"><path d="m248 16h-88v256h-80v128l56-32 24 13.71 32 18.29v-128-224h56z" fill="#cc0000" data-original="#57a4ff" style="" class=""/><path d="m408 16v32h56v416h-208v20a12 12 0 0 1 -12 12h252v-480z" fill="#cc0000" data-original="#57a4ff" style="" class=""/><path d="m216 112h80v80h-80z" fill="#cc0000" data-original="#57a4ff" style="" class=""/><path d="m256 284v20h40v-80h-80v48h28a12 12 0 0 1 12 12z" fill="#cc0000" data-original="#57a4ff" style="" class=""/><path d="m256 336h40v80h-40z" fill="#cc0000" data-original="#57a4ff" style="" class=""/></g><g fill="#004fac"><path d="m496 8h-336a8 8 0 0 0 -8 8v248h-124a20.02 20.02 0 0 0 -20 20v200a20.02 20.02 0 0 0 20 20h468a8 8 0 0 0 8-8v-480a8 8 0 0 0 -8-8zm-240 16h144v36a12.01 12.01 0 0 1 -12 12h-120a12.01 12.01 0 0 1 -12-12zm12 64h120a28.031 28.031 0 0 0 28-28v-4h40v400h-192v-32h32a8 8 0 0 0 8-8v-80a8 8 0 0 0 -8-8h-32v-16h32a8 8 0 0 0 8-8v-80a8 8 0 0 0 -8-8h-80a8 8 0 0 0 -8 8v40h-8v-208h40v4a28.031 28.031 0 0 0 28 28zm-4 320v-64h24v64zm-96-384h72v16h-48a8 8 0 0 0 -8 8v216h-16zm-80 256h96v106.21l-44.03-25.16a8.03 8.03 0 0 0 -7.94 0l-44.03 25.16zm160 204a4 4 0 0 1 -4 4h-216a4 4 0 0 1 -4-4v-200a4 4 0 0 1 4-4h44v120a8 8 0 0 0 11.97 6.95l52.03-29.74 52.03 29.74a8 8 0 0 0 11.97-6.95v-120h44a4 4 0 0 1 4 4zm-4-220h-20v-32h64v64h-24v-12a20.02 20.02 0 0 0 -20-20zm244 224h-224.4a20.248 20.248 0 0 0 .4-4v-12h200a8 8 0 0 0 8-8v-416a8 8 0 0 0 -8-8h-48v-16h72z" fill="#3d3d3d" data-original="#004fac" style="" class=""/><path d="m315.2 113.6-11.2 8.4v-10a8 8 0 0 0 -8-8h-80a8 8 0 0 0 -8 8v80a8 8 0 0 0 8 8h80a8 8 0 0 0 8-8v-50l20.8-15.6a8 8 0 0 0 -9.6-12.8zm-27.2 70.4h-64v-64h64v14l-31.249 23.437-11.094-11.094a8 8 0 0 0 -11.314 11.314l16 16a8 8 0 0 0 10.457.743l27.2-20.4z" fill="#3d3d3d" data-original="#004fac" style="" class=""/><path d="m440 112h-96a8 8 0 0 0 0 16h96a8 8 0 0 0 0-16z" fill="#3d3d3d" data-original="#004fac" style="" class=""/><path d="m440 136h-96a8 8 0 0 0 0 16h96a8 8 0 0 0 0-16z" fill="#3d3d3d" data-original="#004fac" style="" class=""/><path d="m440 160h-96a8 8 0 0 0 0 16h96a8 8 0 0 0 0-16z" fill="#3d3d3d" data-original="#004fac" style="" class=""/><path d="m344 200h64a8 8 0 0 0 0-16h-64a8 8 0 0 0 0 16z" fill="#3d3d3d" data-original="#004fac" style="" class=""/><path d="m440 224h-96a8 8 0 0 0 0 16h96a8 8 0 0 0 0-16z" fill="#3d3d3d" data-original="#004fac" style="" class=""/><path d="m440 248h-96a8 8 0 0 0 0 16h96a8 8 0 0 0 0-16z" fill="#3d3d3d" data-original="#004fac" style="" class=""/><path d="m440 272h-96a8 8 0 0 0 0 16h96a8 8 0 0 0 0-16z" fill="#3d3d3d" data-original="#004fac" style="" class=""/><path d="m344 312h64a8 8 0 0 0 0-16h-64a8 8 0 0 0 0 16z" fill="#3d3d3d" data-original="#004fac" style="" class=""/><path d="m440 336h-96a8 8 0 0 0 0 16h96a8 8 0 0 0 0-16z" fill="#3d3d3d" data-original="#004fac" style="" class=""/><path d="m440 360h-96a8 8 0 0 0 0 16h96a8 8 0 0 0 0-16z" fill="#3d3d3d" data-original="#004fac" style="" class=""/><path d="m440 384h-96a8 8 0 0 0 0 16h96a8 8 0 0 0 0-16z" fill="#3d3d3d" data-original="#004fac" style="" class=""/><path d="m408 408h-64a8 8 0 0 0 0 16h64a8 8 0 0 0 0-16z" fill="#3d3d3d" data-original="#004fac" style="" class=""/></g></g></g></svg>
