<?xml version="1.0"?>
<svg xmlns="http://www.w3.org/2000/svg" xmlns:xlink="http://www.w3.org/1999/xlink" xmlns:svgjs="http://svgjs.com/svgjs" version="1.1" width="512" height="512" x="0" y="0" viewBox="0 0 512 512" style="enable-background:new 0 0 512 512" xml:space="preserve" class=""><g><g xmlns="http://www.w3.org/2000/svg"><path d="m424 336v80l-32-16-32 16v-80h40v-160h-32v-160h-112v24h88v136 76l-24-12-32 16v-80h-48v160h24v80l-32-16-32 16v-80h-48v128h-88v-424h80v-24h-104v480h112 136 24 160v-160z" fill="#ffe248" data-original="#57a4ff" style="" class=""/><path d="m472 328h-64v-152a8 8 0 0 0 -8-8h-24v-152a8 8 0 0 0 -8-8h-328a8 8 0 0 0 -8 8v480a8 8 0 0 0 8 8h432a8 8 0 0 0 8-8v-160a8 8 0 0 0 -8-8zm-56 16v59.06l-20.42-10.22a8.049 8.049 0 0 0 -7.16 0l-20.42 10.22v-59.06zm-24-160v144h-144v-144h32v72a8 8 0 0 0 11.58 7.16l28.42-14.22 28.42 14.22a8 8 0 0 0 11.58-7.16v-72zm-136 160v59.06l-20.42-10.22a8.049 8.049 0 0 0 -7.16 0l-20.42 10.22v-59.06zm40-100.94v-59.06h48v59.06l-20.42-10.22a8.049 8.049 0 0 0 -7.16 0zm-32-219.06h96v144h-8v-128a8 8 0 0 0 -8-8h-80zm-112 0h96v32h-96zm-8 464h-96v-464h88v8h-72a8 8 0 0 0 -8 8v432a8 8 0 0 0 8 8h80zm8-160a8 8 0 0 0 -8 8v128h-72v-416h64v16a8 8 0 0 0 8 8h112a8 8 0 0 0 8-8v-16h72v120h-96a8 8 0 0 0 -8 8v152zm152 160h-144v-144h32v72a8 8 0 0 0 11.58 7.16l28.42-14.22 28.42 14.22a8 8 0 0 0 11.58-7.16v-72h32zm160 0h-144v-144h32v72a8 8 0 0 0 11.58 7.16l28.42-14.22 28.42 14.22a8 8 0 0 0 11.58-7.16v-72h32z" fill="#3d3d3d" data-original="#004fac" style="" class=""/></g></g></svg>
