<?xml version="1.0"?>
<svg xmlns="http://www.w3.org/2000/svg" xmlns:xlink="http://www.w3.org/1999/xlink" xmlns:svgjs="http://svgjs.com/svgjs" version="1.1" width="512" height="512" x="0" y="0" viewBox="0 0 512 512" style="enable-background:new 0 0 512 512" xml:space="preserve" class=""><g><g xmlns="http://www.w3.org/2000/svg"><g fill="#57a4ff"><path d="m360 120a104 104 0 0 0 -208 0v24h208z" fill="#ff7a00" data-original="#57a4ff" style="" class=""/><path d="m448 368v32h-32v-32h-7.78q-3.63-1.14-7.41-1.94l-16.81-4.18-32-7.94-48-9.94-15.38 9.07c-25.07 14.77-40.17 14.77-65.24 0l-15.38-9.07-48 9.94-16 2.81v-20.75h-40v27.78l16-2.81v111.03h-80v-112h16v-24h-40v160h320v-64h144v-64z" fill="#ff7a00" data-original="#57a4ff" style="" class=""/></g><g fill="#004fac"><circle cx="208" cy="184" r="16" fill="#3d3d3d" data-original="#004fac" style="" class=""/><circle cx="304" cy="184" r="16" fill="#3d3d3d" data-original="#004fac" style="" class=""/><path d="m288 264a8 8 0 0 0 -8-8h-48a8 8 0 0 0 0 16h48a8 8 0 0 0 8-8z" fill="#3d3d3d" data-original="#004fac" style="" class=""/><path d="m496 424h-8v-56a8 8 0 0 0 -8-8h-70.66c-2.23-.66-4.49-1.26-6.74-1.74l-48.67-12.08c-.1-.03-.21-.05-.31-.07l-41.62-8.62v-21.38c25.88-17.35 48.55-44.62 54.48-76.11h5.52a28.031 28.031 0 0 0 28-28v-40a28.031 28.031 0 0 0 -28-28h-4v-24a112 112 0 0 0 -224 0v24h-4a28.031 28.031 0 0 0 -28 28v40a28.031 28.031 0 0 0 28 28h5.52c5.93 31.49 28.6 58.76 54.48 76.11v21.38l-41.62 8.62c-.1.02-.21.04-.31.07l-6.07 1.5v-11.68a8 8 0 0 0 -8-8h-128a8 8 0 0 0 -8 8v160a8 8 0 0 0 8 8h480a8 8 0 0 0 8-8v-64a8 8 0 0 0 -8-8zm-128-264h4a12.01 12.01 0 0 1 12 12v40a12.01 12.01 0 0 1 -12 12h-4zm-224 64h-4a12.01 12.01 0 0 1 -12-12v-40a12.01 12.01 0 0 1 12-12h4zm-80 120h32v16h-32zm-8 32h48a8 8 0 0 0 8-8v96h-64v-96a8 8 0 0 0 8 8zm80 112h-112v-144h24v8h-8a8 8 0 0 0 -8 8v112a8 8 0 0 0 8 8h80a8 8 0 0 0 8-8v-112a8 8 0 0 0 -8-8h-8v-8h24zm288-112h16v16h-16zm-32 0h16v24a8 8 0 0 0 8 8h32a8 8 0 0 0 8-8v-24h16v48h-80zm-136-352a96.107 96.107 0 0 1 95.98 94.36c-20.92-14.65-59.23-22.36-95.98-22.36s-75.06 7.71-95.98 22.36a96.107 96.107 0 0 1 95.98-94.36zm92.16 112h-184.32c10.82-11.76 43.95-24 92.16-24s81.34 12.24 92.16 24zm-153.82 155.58c-29.88-26.78-34.34-53.83-34.34-67.58v-72h192v72c0 13.75-4.46 40.8-34.34 67.58-19.26 17.27-43.47 28.42-61.66 28.42s-42.4-11.15-61.66-28.42zm53.66 196.42h-96v-123.83l9.78-2.43 44.82-9.28 12.72 7.5c10.54 6.21 19.76 10.03 28.68 11.46zm-20.56-141.82-11.44-6.75v-14.05c13.85 6.81 27.82 10.62 40 10.62s26.15-3.81 40-10.62v14.05l-11.44 6.75c-22.69 13.36-34.43 13.36-57.12 0zm100.56 85.82v56h-64v-116.58c8.92-1.43 18.14-5.25 28.68-11.46l12.72-7.5 44.83 9.28 25.77 6.4v55.86h-40a8 8 0 0 0 -8 8zm160 56h-144v-48h144z" fill="#3d3d3d" data-original="#004fac" style="" class=""/></g></g></g></svg>
