<?xml version="1.0"?>
<svg xmlns="http://www.w3.org/2000/svg" xmlns:xlink="http://www.w3.org/1999/xlink" xmlns:svgjs="http://svgjs.com/svgjs" version="1.1" width="512" height="512" x="0" y="0" viewBox="0 0 512 512" style="enable-background:new 0 0 512 512" xml:space="preserve" class=""><g><g xmlns="http://www.w3.org/2000/svg"><g fill="#57a4ff"><path d="m288.3 128h-32.3v160l-56-32-56 32v-160h-128v368h368v-272.3a104.035 104.035 0 0 1 -95.7-95.7zm63.7 336h-112v-64h112z" fill="#cc0000" data-original="#57a4ff" style="" class=""/><path d="m352 120h80v48h-80z" fill="#cc0000" data-original="#57a4ff" style="" class=""/></g><g fill="#004fac"><path d="m392 8a112.123 112.123 0 0 0 -112 112h-264a8 8 0 0 0 -8 8v368a8 8 0 0 0 8 8h368a8 8 0 0 0 8-8v-264a112 112 0 0 0 0-224zm-240 128h96v138.21l-44.03-25.16a8.03 8.03 0 0 0 -7.94 0l-44.03 25.16zm224 352h-352v-352h112v152a8 8 0 0 0 11.97 6.95l52.03-29.74 52.03 29.74a8 8 0 0 0 11.97-6.95v-152h17.15a112.22 112.22 0 0 0 94.85 94.85zm16-272a96 96 0 1 1 96-96 96.115 96.115 0 0 1 -96 96z" fill="#3d3d3d" data-original="#004fac" style="" class=""/><path d="m432 112h-8v-32a32 32 0 0 0 -64 0v32h-8a8 8 0 0 0 -8 8v48a8 8 0 0 0 8 8h80a8 8 0 0 0 8-8v-48a8 8 0 0 0 -8-8zm-56-32a16 16 0 0 1 32 0v32h-32zm48 80h-64v-32h64z" fill="#3d3d3d" data-original="#004fac" style="" class=""/><path d="m232 400v64a8 8 0 0 0 8 8h112a8 8 0 0 0 8-8v-64a8 8 0 0 0 -8-8h-112a8 8 0 0 0 -8 8zm16 8h96v48h-96z" fill="#3d3d3d" data-original="#004fac" style="" class=""/></g></g></g></svg>
