<?xml version="1.0"?>
<svg xmlns="http://www.w3.org/2000/svg" xmlns:xlink="http://www.w3.org/1999/xlink" xmlns:svgjs="http://svgjs.com/svgjs" version="1.1" width="512" height="512" x="0" y="0" viewBox="0 0 512 512" style="enable-background:new 0 0 512 512" xml:space="preserve" class=""><g><g xmlns="http://www.w3.org/2000/svg"><g fill="#57a4ff"><path d="m120 280v216h24v-96h32v-96h32v48h32v-48h32v96 48h32v-48h32v96h56v-216z" fill="#ff7a00" data-original="#57a4ff" style="" class=""/><path d="m136 152h240v48h-240z" fill="#ff7a00" data-original="#57a4ff" style="" class=""/><path d="m176 400h32v48h-32z" fill="#ff7a00" data-original="#57a4ff" style="" class=""/></g><g fill="#004fac"><path d="m136 144a8 8 0 0 0 -8 8v48a8 8 0 0 0 8 8h240a8 8 0 0 0 8-8v-48a8 8 0 0 0 -8-8zm152 48h-24v-32h24zm16-32h24v32h-24zm-56 32h-24v-32h24zm-40 0h-24v-32h24zm-64-32h24v32h-24zm224 32h-24v-32h24z" fill="#3d3d3d" data-original="#004fac" style="" class=""/><path d="m500.12 153.14-240-144a8.015 8.015 0 0 0 -8.24 0l-240 144a8 8 0 0 0 -3.88 6.86v336a8 8 0 0 0 8 8h480a8 8 0 0 0 8-8v-336a8 8 0 0 0 -3.88-6.86zm-268.12 334.86h-80v-80h16v40a8 8 0 0 0 8 8h32a8 8 0 0 0 8-8v-40h16zm-48-48v-32h16v32zm0-48v-80h16v40a8 8 0 0 0 8 8h32a8 8 0 0 0 8-8v-40h16v80zm32-48v-32h16v32zm112 144h-80v-80h16v40a8 8 0 0 0 8 8h32a8 8 0 0 0 8-8v-40h16zm-48-48v-32h16v32zm104 48h-40v-88a8 8 0 0 0 -8-8h-56v-88a8 8 0 0 0 -8-8h-96a8 8 0 0 0 -8 8v88h-24a8 8 0 0 0 -8 8v88h-8v-200h256zm-272-216v-16h288v16zm376 216h-88v-200h8a8 8 0 0 0 8-8v-32a8 8 0 0 0 -8-8h-304a8 8 0 0 0 -8 8v32a8 8 0 0 0 8 8h8v200h-88v-323.47l232-139.2 232 139.2z" fill="#3d3d3d" data-original="#004fac" style="" class=""/></g></g></g></svg>
