<?xml version="1.0"?>
<svg xmlns="http://www.w3.org/2000/svg" xmlns:xlink="http://www.w3.org/1999/xlink" xmlns:svgjs="http://svgjs.com/svgjs" version="1.1" width="512" height="512" x="0" y="0" viewBox="0 0 512 512" style="enable-background:new 0 0 512 512" xml:space="preserve" class=""><g><g xmlns="http://www.w3.org/2000/svg"><path d="m511.218 492.257-59.988-180c-2.042-6.126-7.774-10.257-14.23-10.257h-104.259l48.815-84.612c26.182-45.383 26.169-99.563-.035-144.932-26.205-45.37-73.128-72.456-125.521-72.456s-99.317 27.086-125.52 72.456c-26.204 45.369-26.217 99.549-.035 144.932l48.815 84.612h-104.26c-6.456 0-12.189 4.131-14.23 10.257l-59.988 180c-3.237 9.713 3.98 19.743 14.219 19.743h481.999c10.238 0 17.456-10.03 14.218-19.743zm-85.03-160.257 10 30h-42.878l-6.224-30zm-269.758-129.604c-20.763-35.989-20.753-78.956.028-114.936 20.781-35.979 57.992-57.46 99.542-57.46s78.761 21.48 99.542 57.46c20.78 35.979 20.791 78.946.027 114.936l-99.569 172.587zm-70.618 129.604h39.101l-6.224 30h-42.877zm7.981 150h-57.981l10-30h54.205zm285.071-41.953 8.704 41.953h-263.136l8.704-41.953c1.932-9.312-5.178-18.047-14.687-18.047h-62.637l10-30h65.085c7.11 0 13.243-4.991 14.687-11.953l9.968-48.047h41.016l33.461 58h-33.605c-8.077 0-15.027 6.207-15.407 14.275-.405 8.614 6.459 15.725 14.983 15.725h119.576c8.077 0 15.027-6.207 15.407-14.275.405-8.614-6.459-15.725-14.983-15.725h-34.028l33.461-58h41.014l9.969 48.047c1.444 6.961 7.578 11.953 14.687 11.953h65.084l10 30h-62.637c-9.508 0-16.618 8.736-14.686 18.047zm39.343 41.953-6.224-30h54.205l10 30z" fill="#cc0000" data-original="#000000" style="" class=""/><path d="m331 145c0-41.355-33.644-75-75-75-41.355 0-75 33.645-75 75s33.645 75 75 75 75-33.644 75-75zm-120 0c0-24.813 20.187-45 45-45s45 20.187 45 45-20.186 45-45 45c-24.813 0-45-20.186-45-45z" fill="#cc0000" data-original="#000000" style="" class=""/></g></g></svg>
