<?xml version="1.0"?>
<svg xmlns="http://www.w3.org/2000/svg" xmlns:xlink="http://www.w3.org/1999/xlink" xmlns:svgjs="http://svgjs.com/svgjs" version="1.1" width="512" height="512" x="0" y="0" viewBox="0 0 512 512" style="enable-background:new 0 0 512 512" xml:space="preserve" class=""><g><g xmlns="http://www.w3.org/2000/svg"><path d="m256 91c-90.981 0-165 74.019-165 165s74.019 165 165 165 165-74.019 165-165-74.019-165-165-165zm120 180h14.162c-2.888 26-13.186 49.792-28.733 69.216l-9.97-9.97c-5.858-5.858-15.355-5.858-21.213 0s-5.858 15.355 0 21.213l9.97 9.97c-19.424 15.547-43.216 25.846-69.216 28.733v-14.162c0-8.284-6.716-15-15-15s-15 6.716-15 15v14.162c-26-2.887-49.792-13.186-69.216-28.733l9.97-9.97c5.858-5.858 5.858-15.355 0-21.213-5.858-5.858-15.355-5.857-21.213 0l-9.969 9.97c-15.548-19.424-25.847-43.216-28.734-69.216h14.162c8.284 0 15-6.716 15-15s-6.716-15-15-15h-14.162c2.888-26 13.186-49.792 28.733-69.216l9.969 9.97c5.858 5.858 15.355 5.858 21.213 0 5.858-5.858 5.858-15.355 0-21.213l-9.97-9.97c19.425-15.547 43.217-25.846 69.217-28.733v14.162c0 8.284 6.716 15 15 15s15-6.716 15-15v-14.162c26 2.887 49.792 13.186 69.216 28.733l-9.97 9.97c-5.858 5.858-5.858 15.355 0 21.213s15.355 5.858 21.213 0l9.97-9.97c15.547 19.424 25.846 43.216 28.733 69.216h-14.162c-8.284 0-15 6.716-15 15s6.716 15 15 15z" fill="#cc0000" data-original="#000000" style="" class=""/><path d="m296 241h-25v-45c0-8.284-6.716-15-15-15s-15 6.716-15 15v60c0 8.284 6.716 15 15 15h40c8.284 0 15-6.716 15-15s-6.716-15-15-15z" fill="#cc0000" data-original="#000000" style="" class=""/><path d="m497 211h-20.521c-1.808-8.899-4.153-17.68-7.021-26.278l17.754-10.251c7.174-4.142 9.632-13.316 5.49-20.49l-30-51.961c-4.142-7.174-13.316-9.633-20.49-5.49l-17.795 10.274c-6.014-6.783-12.437-13.206-19.22-19.22l10.274-17.795c4.142-7.174 1.684-16.348-5.49-20.49l-51.961-30c-7.174-4.142-16.348-1.684-20.49 5.49l-10.251 17.754c-8.599-2.868-17.379-5.214-26.278-7.021v-20.522c0-8.284-6.716-15-15-15h-60c-8.284 0-15 6.716-15 15v20.521c-8.9 1.808-17.68 4.153-26.279 7.021l-10.25-17.754c-4.142-7.175-13.316-9.633-20.49-5.49l-51.962 30c-7.174 4.142-9.633 13.316-5.49 20.49l10.274 17.795c-6.783 6.014-13.206 12.437-19.22 19.22l-17.796-10.274c-7.174-4.142-16.348-1.684-20.49 5.49l-30 51.961c-4.142 7.174-1.684 16.348 5.49 20.49l17.754 10.251c-2.867 8.599-5.213 17.379-7.021 26.278h-20.521c-8.284 0-15 6.716-15 15v60c0 8.284 6.716 15 15 15h20.521c1.808 8.899 4.154 17.68 7.021 26.278l-17.754 10.251c-7.174 4.142-9.632 13.316-5.49 20.49l30 51.961c4.142 7.174 13.316 9.632 20.49 5.49l17.795-10.274c6.014 6.783 12.437 13.206 19.22 19.22l-10.274 17.795c-4.142 7.174-1.684 16.348 5.49 20.49l51.962 30c7.174 4.142 16.348 1.684 20.49-5.49l10.25-17.754c8.599 2.868 17.379 5.214 26.279 7.021v20.523c0 8.284 6.716 15 15 15h60c8.284 0 15-6.716 15-15v-20.521c8.899-1.808 17.681-4.153 26.279-7.021l10.25 17.754c4.142 7.174 13.316 9.633 20.49 5.49l51.961-30c7.174-4.142 9.633-13.316 5.49-20.49l-10.274-17.795c6.783-6.014 13.206-12.437 19.22-19.22l17.795 10.274c7.174 4.142 16.348 1.684 20.49-5.49l30-51.961c4.142-7.174 1.684-16.348-5.49-20.49l-17.754-10.251c2.868-8.599 5.214-17.379 7.021-26.278h20.522c8.284 0 15-6.716 15-15v-60c0-8.285-6.716-15.001-15-15.001zm-15 60h-18.143c-7.463 0-13.792 5.487-14.848 12.875-2.186 15.274-6.188 30.252-11.896 44.517-2.771 6.924-.033 14.832 6.426 18.562l15.683 9.055-15 25.98-15.716-9.074c-6.454-3.727-14.666-2.149-19.279 3.704-9.538 12.098-20.508 23.067-32.605 32.605-5.853 4.614-7.43 12.825-3.704 19.28l9.074 15.716-25.98 15-9.054-15.682c-3.729-6.459-11.637-9.197-18.562-6.427h-.001c-14.266 5.708-29.243 9.71-44.518 11.896-7.388 1.057-12.876 7.385-12.876 14.848v18.145h-30v-18.143c0-7.464-5.487-13.792-12.875-14.848-15.275-2.186-30.253-6.188-44.518-11.896-6.924-2.77-14.833-.032-18.562 6.427l-9.054 15.682-25.981-15 9.074-15.717c3.726-6.454 2.149-14.665-3.704-19.279l-.001-.001c-12.112-9.549-23.055-20.492-32.604-32.604-4.614-5.853-12.825-7.43-19.279-3.704l-15.717 9.074-15-25.98 15.682-9.055c6.459-3.729 9.196-11.638 6.426-18.562-5.708-14.265-9.709-29.242-11.895-44.517-1.059-7.39-7.387-12.877-14.85-12.877h-18.143v-30h18.143c7.464 0 13.792-5.487 14.848-12.875 2.186-15.274 6.188-30.252 11.895-44.517 2.771-6.924.033-14.833-6.426-18.562l-15.682-9.055 15-25.98 15.717 9.074c6.454 3.726 14.665 2.149 19.279-3.704 9.548-12.112 20.492-23.056 32.604-32.604l.001-.001c5.853-4.614 7.43-12.825 3.704-19.279l-9.074-15.717 25.981-15 9.054 15.682c3.729 6.459 11.637 9.197 18.562 6.426 14.265-5.708 29.243-9.71 44.518-11.896 7.389-1.058 12.876-7.386 12.876-14.849v-18.143h30v18.143c0 7.463 5.487 13.792 12.876 14.848 15.274 2.186 30.252 6.188 44.517 11.896 6.924 2.771 14.832.033 18.562-6.426l9.055-15.683 25.98 15-9.074 15.716c-3.727 6.454-2.149 14.666 3.704 19.28 12.098 9.538 23.067 20.508 32.605 32.605 4.614 5.853 12.825 7.43 19.279 3.704l15.716-9.074 15 25.98-15.683 9.055c-6.459 3.729-9.196 11.637-6.426 18.562 5.708 14.265 9.71 29.242 11.896 44.517 1.057 7.388 7.385 12.875 14.848 12.875h18.145z" fill="#cc0000" data-original="#000000" style="" class=""/></g></g></svg>
