<?xml version="1.0"?>
<svg xmlns="http://www.w3.org/2000/svg" xmlns:xlink="http://www.w3.org/1999/xlink" xmlns:svgjs="http://svgjs.com/svgjs" version="1.1" width="512" height="512" x="0" y="0" viewBox="0 0 512 512" style="enable-background:new 0 0 512 512" xml:space="preserve" class=""><g><g xmlns="http://www.w3.org/2000/svg"><path d="m125 91h140c8.284 0 15-6.716 15-15s-6.716-15-15-15h-140c-8.284 0-15 6.716-15 15s6.716 15 15 15z" fill="#cc0000" data-original="#000000" style="" class=""/><path d="m75 151h240c8.284 0 15-6.716 15-15s-6.716-15-15-15h-240c-8.284 0-15 6.716-15 15s6.716 15 15 15z" fill="#cc0000" data-original="#000000" style="" class=""/><path d="m330 196c0-8.284-6.716-15-15-15h-240c-8.284 0-15 6.716-15 15s6.716 15 15 15h240c8.284 0 15-6.716 15-15z" fill="#cc0000" data-original="#000000" style="" class=""/><path d="m295 241h-220c-8.284 0-15 6.716-15 15s6.716 15 15 15h220c8.284 0 15-6.716 15-15s-6.716-15-15-15z" fill="#cc0000" data-original="#000000" style="" class=""/><path d="m135 301c-41.355 0-75 33.645-75 75s33.645 75 75 75 75-33.645 75-75-33.645-75-75-75zm0 120c-24.813 0-45-20.187-45-45s20.187-45 45-45 45 20.187 45 45-20.187 45-45 45z" fill="#cc0000" data-original="#000000" style="" class=""/><path d="m477 412h-10c-13.785 0-25-11.215-25-25v-5.289c0-17.92 4.678-36.97 14.301-58.236 3.782-8.355 5.699-17.263 5.699-26.475 0-35.841-29.159-65-65-65-2.365 0-4.699.135-7 .383v-132.383h45c8.284 0 15-6.716 15-15v-40c0-24.813-20.187-45-45-45h-360c-24.813 0-45 20.187-45 45v452c0 8.284 6.716 15 15 15h482c8.284 0 15-6.716 15-15v-50c0-19.299-15.701-35-35-35zm-87-367c0-8.271 6.729-15 15-15s15 6.729 15 15v25h-30zm7 217c19.299 0 35 15.701 35 35 0 4.918-1.02 9.664-3.03 14.107-11.419 25.234-16.97 48.329-16.97 70.604v5.289c0 9 2.187 17.493 6.035 25h-42.07c3.849-7.507 6.035-16 6.035-25v-5.289c0-22.275-5.551-45.371-16.97-70.605-2.01-4.442-3.03-9.188-3.03-14.106 0-19.299 15.701-35 35-35zm-115 185v35h-252v-437c0-8.271 6.729-15 15-15h317.58c-1.665 4.695-2.58 9.742-2.58 15v198.602c-16.904 11.749-28 31.297-28 53.398 0 9.212 1.917 18.12 5.698 26.475 9.624 21.267 14.302 40.316 14.302 58.236v5.289c0 13.785-11.215 25-25 25h-10c-19.299 0-35 15.701-35 35zm200 35h-170v-35c0-2.757 2.243-5 5-5h160c2.757 0 5 2.243 5 5z" fill="#cc0000" data-original="#000000" style="" class=""/></g></g></svg>
