<?xml version="1.0"?>
<svg xmlns="http://www.w3.org/2000/svg" xmlns:xlink="http://www.w3.org/1999/xlink" xmlns:svgjs="http://svgjs.com/svgjs" version="1.1" width="512" height="512" x="0" y="0" viewBox="0 0 512.459 512.459" style="enable-background:new 0 0 512 512" xml:space="preserve" class=""><g><g xmlns="http://www.w3.org/2000/svg"><path d="m480.879 245.22h-6.68l-167.802-72.113c.8-3.608 1.234-7.351 1.234-11.196 0-23.383-15.602-43.19-36.963-49.628v-22.164h93.188c8.284 0 15-6.716 15-15v-60.119c0-8.284-6.716-15-15-15h-217.408c-8.284 0-15 6.716-15 15v60.119c0 8.284 6.716 15 15 15h94.22v22.164c-21.361 6.438-36.962 26.246-36.962 49.628 0 3.886.445 7.668 1.261 11.312l-166.627 71.997h-6.759c-17.174 0-31.146 12.616-31.146 28.123v210.993c0 15.507 13.973 28.124 31.146 28.124h465.444c8.284 0 15-6.716 15-15v-224.117c0-15.507-13.973-28.123-31.146-28.123zm-319.431-215.22h187.407v30.119h-92.404c-.261-.013-.519-.04-.783-.04s-.522.026-.783.04h-93.437zm94.22 110.072c12.11 0 21.963 9.797 21.963 21.839s-9.853 21.84-21.963 21.84c-12.109 0-21.962-9.797-21.962-21.84s9.852-21.839 21.962-21.839zm-35.775 59.382c9.325 8.848 21.92 14.297 35.775 14.297 13.898 0 26.529-5.482 35.863-14.38l106.687 45.849h-284.244zm262.132 75.904v207.101c-1.101-.138-450.48.265-451.591-.138v-206.963z" fill="#cc0000" data-original="#000000" style="" class=""/><path d="m91.69 305.08c-8.284 0-15 6.716-15 15v117.188c0 8.284 6.716 15 15 15s15-6.716 15-15v-117.188c0-8.284-6.716-15-15-15z" fill="#cc0000" data-original="#000000" style="" class=""/><path d="m173.96 304.673c-8.284 0-15 6.716-15 15v117.188c0 8.284 6.716 15 15 15s15-6.716 15-15v-117.188c0-8.284-6.716-15-15-15z" fill="#cc0000" data-original="#000000" style="" class=""/><path d="m256.229 302.215c-8.284 0-15 6.716-15 15v117.188c0 8.284 6.716 15 15 15s15-6.716 15-15v-117.188c0-8.284-6.716-15-15-15z" fill="#cc0000" data-original="#000000" style="" class=""/><path d="m338.5 303.854c-8.284 0-15 6.716-15 15v117.188c0 8.284 6.716 15 15 15s15-6.716 15-15v-117.188c0-8.284-6.716-15-15-15z" fill="#cc0000" data-original="#000000" style="" class=""/><path d="m420.769 302.912c-8.284 0-15 6.716-15 15v117.188c0 8.284 6.716 15 15 15s15-6.716 15-15v-117.188c0-8.284-6.716-15-15-15z" fill="#cc0000" data-original="#000000" style="" class=""/></g></g></svg>
